<?xml version="1.0" encoding="utf-8"?>
<!-- Generator: Adobe Illustrator 27.5.0, SVG Export Plug-In . SVG Version: 6.00 Build 0)  -->
<svg version="1.1" id="Capa_1" xmlns="http://www.w3.org/2000/svg" xmlns:xlink="http://www.w3.org/1999/xlink" x="0px" y="0px"
	 viewBox="0 0 425.197 425.196" style="enable-background:new 0 0 425.197 425.196;" xml:space="preserve">
<g>
	<rect x="0" y="0" style="fill:#FFFFFF;" width="425.197" height="425.196"/>
	<g>
		<g>
			<path style="fill:#4DB272;" d="M222.572,226.983v-23.984h2.494V224.7h7.531v2.283H222.572z"/>
			<path style="fill:#4DB272;" d="M242.087,221.348h2.17c-0.097,1.922-0.572,3.415-1.425,4.479
				c-0.853,1.064-1.992,1.595-3.417,1.595c-1.782,0-3.099-0.734-3.952-2.202c-0.853-1.469-1.279-3.741-1.279-6.818
				c0-3.088,0.426-5.363,1.279-6.826c0.853-1.463,2.17-2.194,3.952-2.194c1.652,0,2.896,0.664,3.733,1.991
				c0.836,1.328,1.255,3.315,1.255,5.96c0,0.367-0.002,0.643-0.008,0.826c-0.006,0.184-0.019,0.362-0.041,0.534h-7.838
				c0.011,2.408,0.243,4.122,0.696,5.142c0.454,1.02,1.188,1.53,2.203,1.53c0.82,0,1.458-0.343,1.911-1.028
				C241.779,223.65,242.033,222.654,242.087,221.348z M236.532,216.765h5.506V216.1c0-1.684-0.208-2.896-0.624-3.636
				c-0.416-0.739-1.093-1.109-2.032-1.109c-0.907,0-1.593,0.438-2.057,1.312C236.861,213.542,236.597,214.907,236.532,216.765z"/>
			<path style="fill:#4DB272;" d="M248.08,211.76h-2.3v-1.991h2.3v-5.733h2.251v5.733h3.077v1.991h-3.077v11.046
				c0,1.015,0.113,1.694,0.34,2.04c0.227,0.346,0.631,0.518,1.214,0.518c0.205,0,0.669-0.07,1.393-0.211l0.129-0.016v1.911
				c-0.454,0.118-0.874,0.21-1.263,0.275c-0.389,0.064-0.718,0.097-0.988,0.097c-1.026,0-1.795-0.281-2.308-0.842
				c-0.513-0.562-0.769-1.398-0.769-2.511V211.76z"/>
			<path style="fill:#4DB272;" d="M257.457,205.493v-2.948h2.624v3.109l-1.96,4.648h-0.956l1.49-4.81H257.457z"/>
			<path style="fill:#4DB272;" d="M263.335,222.806l2.186-0.502c0.14,0.993,0.483,1.772,1.028,2.34
				c0.545,0.566,1.207,0.851,1.984,0.851c0.745,0,1.353-0.246,1.822-0.737c0.469-0.491,0.704-1.131,0.704-1.919
				c0-1.188-1.036-2.483-3.109-3.887l-0.048-0.032c-1.685-1.155-2.786-2.092-3.304-2.811c-0.518-0.718-0.777-1.525-0.777-2.421
				c0-1.241,0.408-2.27,1.223-3.085c0.815-0.815,1.838-1.223,3.069-1.223c1.285,0,2.324,0.334,3.118,1.004
				c0.793,0.67,1.368,1.7,1.725,3.093l-1.96,0.6c-0.238-0.929-0.589-1.63-1.053-2.105c-0.464-0.475-1.042-0.713-1.733-0.713
				c-0.648,0-1.174,0.197-1.579,0.592c-0.405,0.394-0.607,0.904-0.607,1.53c0,1.004,1.009,2.181,3.029,3.53
				c0.863,0.583,1.533,1.053,2.008,1.409c0.767,0.583,1.334,1.23,1.701,1.943c0.367,0.713,0.551,1.517,0.551,2.413
				c0,1.436-0.448,2.58-1.344,3.434c-0.896,0.853-2.105,1.279-3.628,1.279c-1.317,0-2.424-0.41-3.32-1.231
				C264.123,225.337,263.562,224.22,263.335,222.806z"/>
		</g>
		<g>
			<path style="fill:#00A99E;" d="M225.556,261.974c0.539,0.042,2.323,0.042,3.069-0.082c4.563-0.747,9.581-1.991,8.171-8.212
				c-0.456-2.198-2.696-3.442-4.935-4.023c-2.903-0.746-6.346,0.083-8.668-2.612c-0.913-0.954-1.037-3.193-1.079-4.479
				c-0.042-3.152,0.747-6.138,2.53-7.921c1.784-1.784,4.687-2.53,7.382-2.613c0.871,0,1.949,0.166,2.654,0.622
				c0.415,0.249,2.157,1.7,1.079,2.322c-0.83,0.498-1.286-1.285-2.115-1.41c-3.65-0.456-6.511,1.286-8.129,3.733
				c-1.286,1.99-2.571,5.931-0.747,8.294c1.701,2.115,3.981,1.866,6.263,2.115c2.281,0.249,4.894,1.452,6.138,3.027
				c2.571,3.194,1.825,9-1.203,10.908c-0.539,0.331-1.41,0.663-2.115,0.995c-0.705,0.332-1.452,0.829-2.032,1.037
				c-0.83,0.248-2.613,0.456-3.94,0.58c-3.401,0.415-7.714-1.866-7.134-5.059C222.279,258.117,222.072,261.767,225.556,261.974z"/>
			<path style="fill:#00A99E;" d="M246.703,251.025c-1.783,1.99-2.613,5.392-3.566,7.963c-0.705,1.99-0.208,5.309-2.903,5.309
				c-0.622,0,0.291-2.613,0.788-3.732c1.078-2.654,1.908-5.102,2.779-7.507c0.705-2.157,1.327-4.438,2.364-6.263
				c1.161-2.488,1.949-5.599,2.986-8.17c0.664-1.535,1.451-3.152,2.281-4.687c1.618-3.235,4.645,10.036,5.309,12.275
				c0.456,1.369,0.705,2.24,0.996,3.525c0.331,1.908,1.161,4.687,1.7,6.885c0.664,2.322,0.705,4.728,1.659,6.263
				c0.332,0.58,0.373,1.244-0.291,1.41c-1.493,0.331-1.535-1.41-1.742-2.571c-0.125-0.664-0.539-1.452-0.705-2.157
				c-0.788-3.317-1.244-7.797-2.82-8.834C252.717,250.983,249.648,250.817,246.703,251.025z M251.929,236.924
				c-1.203,1.576-1.078,2.654-1.949,4.438c-0.829,1.825-2.488,5.558-2.53,7.59c2.447,0.498,5.931,0,7.714-0.124
				c-0.083-2.696-1.784-6.678-2.198-8.917C252.634,238.5,253.09,237.878,251.929,236.924z"/>
			<path style="fill:#00A99E;" d="M278.592,244.265c-0.913,1.742-1.618,3.815-2.364,5.89c-0.747,2.032-1.617,3.981-2.281,5.972
				c-0.747,2.074-1.41,4.148-2.074,6.18c-0.374,1.161-2.157,3.235-2.945,1.203c-1.41-3.359-1.41-6.097-1.991-9.083
				c-0.497-2.654-1.327-5.102-1.866-7.507c-0.456-2.156-4.604-14.806-0.913-13.686c0.996,0.165,3.567,14.972,4.853,21.731
				c0.373,1.908,0.746,4.148,1.286,5.931c0.788-0.912,1.037-2.239,1.452-3.525c1.244-3.69,2.571-7.258,3.94-11.114
				c0.456-1.244,1.078-2.281,1.617-3.442c1.12-2.405,1.742-4.521,2.986-7.217c0.415-0.953,2.157-3.773,2.945-2.363
				C283.776,233.896,280.666,240.283,278.592,244.265z"/>
			<path style="fill:#00A99E;" d="M286.8,235.473c0.249,4.355-0.124,8.668,0.29,13.189c2.405-0.415,4.853-0.124,7.548-0.29
				c0.207,0.58-0.166,1.368-0.498,1.741c-2.364-0.248-4.313,0-7.009,0.042c-0.083,4.105-0.705,8.875,0.207,12.276
				c3.069-0.498,5.309,0.663,8.128,0.165c0.207,0.249,0.374,0.581,0.29,1.12c-0.871,0.871-5.267,0.622-6.345,0.539
				c-0.996-0.124-3.65,0.498-4.023-0.58c-0.581-1.576-0.457-4.729-0.415-7.051c0.083-3.691,0.042-8.129,0.042-12.276
				c0-2.612-0.042-5.143-0.207-7.341c-0.083-1.119-0.539-2.571,0.996-3.193c2.198-1.327,8.212-0.497,10.161-0.332
				c0.041,0.622-0.249,0.83-0.415,1.162C292.565,234.892,289.206,234.395,286.8,235.473z"/>
		</g>
		<g>
			<path style="fill:#00A99E;" d="M293.958,297.529c-0.829-3.234-1.369-5.226-2.115-8.461c-1.079,2.447-1.95,4.355-2.613,7.341
				c-0.207,0.871-0.871,3.484-1.991,3.318c-0.663-0.124-1.078-1.369-1.451-2.53c-0.913-2.695-1.618-5.184-2.406-7.672
				c-0.954-2.986-1.203-6.263-2.239-9.664c-0.374-1.119-0.83-2.654-1.327-4.022c-0.374-1.41-1.12-3.608-1.742-5.102
				c-0.207-0.539-0.995-1.783,0.124-1.99c0.996-0.166,1.949,2.446,2.24,3.317c1.783,5.143,2.198,5.89,3.401,10.866
				c0.746,3.318,1.161,6.097,3.4,12.691c0.29,0.953,1.867-3.484,2.198-4.646c0.249-1.12,0.747-2.281,1.12-3.442
				c0.166-0.705,0.332-1.037,1.493-1.037c2.53,0,1.701,7.258,3.359,9.042c0.125,0,1.742-8.544,2.24-9.747
				c1.742-5.392,3.815-10.7,5.599-16.091c0.249-0.83,1.12-1.162,2.406-0.581c1.12,0-0.042,1.286-0.497,2.447
				c-1.41,3.566-2.737,7.175-4.023,10.658c-1.079,3.069-2.074,6.014-2.82,9.041c-0.705,2.447-1.825,7.258-3.028,8.502
				C294.705,300.391,294.125,298.276,293.958,297.529z"/>
			<path style="fill:#00A99E;" d="M325.515,295.58c-0.995,1.244-1.991,2.447-2.861,3.027c-1.659,1.244-4.272,1.7-6.636,0.913
				c-3.111-0.996-5.682-2.986-6.885-6.056c-1.742-4.562-1.866-10.368-0.291-15.636c0.705-2.446,1.701-4.769,2.82-6.179
				c0.705-0.913,2.696-2.82,4.023-3.111c1.203-0.29,3.442,0.083,4.562,0.581c0.788,0.373,1.783,1.617,2.53,2.53
				c1.327,1.741,2.032,2.695,3.111,4.645c1.12,2.032,2.156,5.558,2.447,8.502c0.042,0.456-0.042,0.747,0,1.203
				C328.543,289.981,327.381,293.216,325.515,295.58z M315.852,271.11c-2.654,1.245-3.567,2.737-4.603,5.724
				c-1.659,4.853-1.825,11.82,0.207,16.258c1.286,2.82,3.567,5.018,7.507,4.479c3.525-0.457,6.055-3.359,6.926-6.388
				c1.161-3.815-0.373-11.197-2.323-14.765C322.985,275.756,320.953,268.705,315.852,271.11z"/>
			<path style="fill:#00A99E;" d="M332.768,286.995c-0.249,1.41-0.332,1.991-0.249,3.608c0.083,2.032,0.083,4.105,0.166,6.014
				c0.042,1.244,0.373,2.239-0.249,3.193c-0.373,0.166-0.995,0.166-1.368,0c-0.249-7.424,0.124-12.898-0.208-19.534
				c-0.249-3.732-0.457-8.17-0.954-11.363c1.535-0.705,2.198-0.705,4.686-0.705c2.696,0,5.101-0.042,7.051,0.912
				c0.664,0.332,0.995,0.871,1.576,1.534c0.29,0.291,0.705,0.622,0.913,0.913c1.037,1.451,1.659,4.355,1.535,6.304
				c-0.249,4.562-2.737,6.304-6.097,7.424c2.571,3.566,6.097,8.875,6.428,13.438c0.083,0.746-0.373,1.244-0.788,1.202
				c-0.83-0.041-1.908-4.105-2.281-4.936c-0.83-1.7-1.576-3.151-2.406-4.811c-0.83-1.742-2.198-3.649-3.401-3.691
				C335.422,286.871,334.22,286.414,332.768,286.995z M341.726,271.608c-2.488-1.949-6.179-1.617-9.995-1.534
				c0.29,4.77,0.705,9.58,0.996,14.06c5.558,0.207,11.986,0.207,11.405-7.383C343.966,274.263,343.053,272.646,341.726,271.608z"/>
			<path style="fill:#00A99E;" d="M349.105,282.018c0-1.327,0-2.654-0.083-3.94c-0.125-2.612,0.166-4.23-0.29-6.47
				c-0.207-0.912-0.581-1.866-0.124-2.239c0.705-0.581,1.12,0.041,1.41,0.497c0.374,0.622,0.623,1.452,0.664,2.032
				c0.249,4.563,0.498,9.456,0.456,14.06c-0.042,3.898,0.042,7.673,0.083,11.986c3.65,0,5.516,0.166,8.751,0.207
				c1.493,0,2.861-0.912,3.525-0.207c0.747,2.281-1.12,2.073-3.152,2.032c-0.913,0-2.53-0.083-3.318,0
				c-2.571,0.29-1.742-0.083-7.797-0.208C348.856,294.377,349.064,288.156,349.105,282.018z"/>
			<path style="fill:#00A99E;" d="M366.271,284.382c0.042-2.736-0.083-6.096-0.083-9.207c0-0.622-0.042-6.138,0-6.262
				c0.581-1.659,4.272-0.705,6.055-0.415c1.618,0.249,4.686,2.115,5.806,3.276c2.696,2.737,3.442,7.175,3.733,11.778
				c0.332,5.185-0.788,9.166-3.567,11.778c-0.995,0.954-3.235,2.613-4.77,3.193c-0.829,0.291-1.742,0.249-2.571,0.498
				c-1.037,0.29-2.944,1.203-4.479,0.498C366.022,295.082,366.271,289.317,366.271,284.382z M377.718,293.133
				c1.908-2.446,2.074-7.921,1.617-11.902c-0.664-6.221-2.613-10.949-10.617-10.451c-0.29,8.668-0.746,18.289-0.124,27.289
				c1.369-0.415,2.82-1.119,4.23-1.534C374.524,295.995,376.847,294.295,377.718,293.133z"/>
		</g>
		<g>
			<path style="fill:#4DB272;" d="M299.225,321.385v-14.063h-3.084v-1.318h7.727v1.318h-3.085v14.063H299.225z"/>
			<path style="fill:#4DB272;" d="M308.812,321.686c-1.399,0-2.455-0.677-3.168-2.031c-0.713-1.354-1.07-3.342-1.07-5.966
				c0-2.632,0.356-4.618,1.07-5.962c0.713-1.343,1.768-2.015,3.168-2.015c1.392,0,2.447,0.673,3.167,2.02
				c0.72,1.347,1.081,3.333,1.081,5.957s-0.36,4.612-1.081,5.966C311.259,321.01,310.203,321.686,308.812,321.686z M308.812,307.136
				c-0.886,0-1.537,0.498-1.953,1.495s-0.623,2.563-0.623,4.694c0,2.444,0.203,4.207,0.607,5.287c0.405,1.08,1.061,1.62,1.968,1.62
				c0.886,0,1.535-0.52,1.947-1.559c0.412-1.038,0.618-2.7,0.618-4.984c0-2.271-0.206-3.932-0.618-4.98
				C310.347,307.66,309.698,307.136,308.812,307.136z"/>
			<path style="fill:#4DB272;" d="M322.033,321.385l-0.166-0.893c-0.347,0.408-0.736,0.709-1.168,0.903
				c-0.433,0.193-0.936,0.291-1.511,0.291c-1.461,0-2.557-0.649-3.287-1.947c-0.731-1.299-1.096-3.246-1.096-5.843
				c0-2.804,0.358-4.872,1.075-6.205c0.717-1.333,1.826-1.999,3.329-1.999c1.177,0,2.105,0.427,2.784,1.282
				c0.678,0.855,1.018,2.034,1.018,3.536h-1.526c-0.056-1.121-0.279-1.975-0.67-2.56c-0.392-0.585-0.933-0.878-1.625-0.878
				c-0.97,0-1.666,0.518-2.088,1.553c-0.422,1.035-0.633,2.778-0.633,5.23c0,2.243,0.232,3.876,0.696,4.896
				c0.464,1.022,1.201,1.532,2.212,1.532c0.706,0,1.262-0.26,1.667-0.779c0.405-0.518,0.608-1.232,0.608-2.14v-1.807h-2.233v-1.382
				h3.728v7.208H322.033z"/>
			<path style="fill:#4DB272;" d="M325.501,321.385v-15.381h6.917v1.433h-5.338v5.287h3.915v1.412h-3.915v5.826h5.525v1.423H325.501
				z"/>
			<path style="fill:#4DB272;" d="M336.261,321.385v-14.063h-3.085v-1.318h7.727v1.318h-3.084v14.063H336.261z"/>
			<path style="fill:#4DB272;" d="M342.493,321.385v-15.381h1.579v6.595h4.466v-6.595h1.568v15.381h-1.568v-7.322h-4.466v7.322
				H342.493z"/>
			<path style="fill:#4DB272;" d="M352.868,321.385v-15.381h6.917v1.433h-5.338v5.287h3.915v1.412h-3.915v5.826h5.525v1.423H352.868
				z"/>
			<path style="fill:#4DB272;" d="M361.738,321.385v-15.381h2.804c1.669,0,2.913,0.334,3.734,1.002
				c0.82,0.668,1.23,1.681,1.23,3.038c0,0.941-0.208,1.727-0.623,2.357c-0.415,0.63-1.018,1.073-1.807,1.329l2.513,7.654h-1.703
				l-2.316-7.311c-0.422,0.014-0.751,0.024-0.987,0.031c-0.235,0.007-0.454,0.011-0.654,0.011h-0.613v7.27H361.738z
				 M363.316,312.724h1.34c1.052,0,1.843-0.224,2.373-0.67c0.53-0.447,0.794-1.117,0.794-2.01c0-0.9-0.261-1.572-0.784-2.016
				c-0.523-0.442-1.317-0.664-2.383-0.664h-1.34V312.724z"/>
		</g>
		<path style="fill:#4DB272;" d="M324.289,254.143c0,7.273-5.895,13.167-13.166,13.167c-7.272,0-13.167-5.895-13.167-13.167
			c0-7.271,5.895-13.166,13.167-13.166C318.394,240.977,324.289,246.871,324.289,254.143z"/>
		<g>
			<g>
				<path style="fill:#EDE7CA;" d="M306.466,250.213c0,0.664-0.104,0.937-0.117,1.601c-0.065,2.525-0.182,5.09-0.195,7.445
					c-0.104,0.065-0.481-0.013-0.69,0.013c-0.091,0.014,0.078-1.353,0.078-1.627c0.078-1.067,0-2.174,0.078-3.228
					c0.117-1.51,0.156-2.746,0.182-4.204c-0.468-0.222-2.473,0.299-2.668-0.169c0-0.573,0.781-0.456,1.236-0.456
					c0,0,2.759,0.013,4.061-0.052c0.729-0.105,1.028-0.053,1.028,0.325C309.043,250.499,306.141,249.913,306.466,250.213z"/>
				<path style="fill:#EDE7CA;" d="M315.602,250.968c0,2.121-0.364,4.933-0.364,6.586c0,0.299,0.013,0.638,0.013,1.119
					c0,0.273-0.026,0.573-0.273,0.573c-0.169,0-0.443-0.156-0.443-0.404c0-0.26,0.052-0.599,0.078-0.819
					c0.078-1.263-0.013-2.252,0.13-3.215c-1.341,0.025-2.096,0.025-3.501,0.052c-0.13,0.729-0.091,1.731-0.091,2.76
					c0,0.455,0.104,1.64-0.56,1.64c-0.247,0-0.039-2.161-0.039-2.473c0-1.094-0.052-0.859,0.026-2.083
					c0.039-0.625,0.078-1.236,0.13-1.835c0.052-0.638,0.183-1.861,0.183-2.382c0-0.104-0.026-0.286-0.026-0.456
					c0-0.26,0.052-0.508,0.248-0.508c0.156,0,0.403,0.209,0.403,0.469c0,0.209-0.026,0.43-0.026,0.521
					c-0.13,1.055-0.234,2.669-0.26,3.775c1.184,0.194,2.33,0,3.488,0.013l0.026-0.234c0.065-1.172,0.143-2.33,0.143-3.488
					c0-0.286-0.052-0.508-0.052-0.794c0-0.169,0.365-0.286,0.547-0.286c0.234,0,0.156,0.208,0.182,0.482
					C315.588,250.291,315.602,250.616,315.602,250.968z"/>
				<path style="fill:#EDE7CA;" d="M317.63,250.239c0.078,1.366-0.039,2.72,0.091,4.139c0.755-0.13,1.523-0.039,2.369-0.091
					c0.065,0.182-0.052,0.429-0.156,0.546c-0.742-0.078-1.353,0-2.2,0.014c-0.026,1.288-0.221,2.785,0.066,3.853
					c0.963-0.156,1.666,0.208,2.551,0.052c0.066,0.078,0.117,0.183,0.091,0.352c-0.273,0.273-1.653,0.195-1.991,0.169
					c-0.313-0.039-1.146,0.156-1.263-0.182c-0.182-0.495-0.143-1.484-0.13-2.213c0.026-1.158,0.013-2.551,0.013-3.852
					c0-0.82-0.013-1.614-0.065-2.304c-0.026-0.352-0.169-0.808,0.313-1.003c0.689-0.416,2.577-0.156,3.189-0.104
					c0.013,0.195-0.078,0.26-0.13,0.364C319.439,250.057,318.385,249.9,317.63,250.239z"/>
			</g>
		</g>
	</g>
	
		<radialGradient id="SVGID_1_" cx="-2046.5146" cy="5421.3203" r="67.5297" gradientTransform="matrix(2.2257 0 0 0.3312 4710.4023 -1407.6761)" gradientUnits="userSpaceOnUse">
		<stop  offset="0.0856" style="stop-color:#0F0D03"/>
		<stop  offset="0.0931" style="stop-color:#131107"/>
		<stop  offset="0.1754" style="stop-color:#3C352F"/>
		<stop  offset="0.261" style="stop-color:#655E58"/>
		<stop  offset="0.3483" style="stop-color:#8F8782"/>
		<stop  offset="0.4378" style="stop-color:#B4AEAB"/>
		<stop  offset="0.53" style="stop-color:#D3CFCE"/>
		<stop  offset="0.6262" style="stop-color:#EBE8E9"/>
		<stop  offset="0.7289" style="stop-color:#FAF8F9"/>
		<stop  offset="0.8495" style="stop-color:#FFFDFE"/>
	</radialGradient>
	<ellipse style="opacity:0.4;fill:url(#SVGID_1_);" cx="155.475" cy="387.865" rx="150.299" ry="22.366"/>
	<g>
		<g>
			<g>
				<g>
					<path style="fill:#538830;" d="M95.059,106.426c5.664,32.213,54.01,52.619,54.01,52.619s32.397-33.37,26.52-66.775
						c-7.974-45.338-38.058-69.567-86.404-75.212C106.354,55.243,89.394,74.215,95.059,106.426z"/>
					<path style="fill:#AFB4B6;" d="M106.73,109.906c6.291,9.997,20.846,22.885,34.096,18.977c3.829-1.128,7.806-2.367,8.691-6.796
						c2.164-10.807,4.318-21.424,7.132-32.104c2.661-10.105,5.914-21.093,4.882-31.63c-0.112-1.15-0.267-2.282-0.431-3.42
						c7.037,10.313,11.918,22.721,14.488,37.336c5.877,33.406-26.52,66.775-26.52,66.775s-48.346-20.406-54.01-52.619
						c-1.532-8.706-1.405-16.441-0.75-23.857C97.723,91.998,101.339,101.333,106.73,109.906z"/>
					<path style="opacity:0.3;fill:#FFFFFF;" d="M142.47,35.832c-11.465,1.025-31.467-8.051-38.392-10.39
						c-1.335-0.45-2.787,0.407-2.928,1.839c-0.894,8.952,4.281,18.556,2.386,27.17c-1.127,5.128-3.779,8.483-7.236,10.793
						c1.513-13.92,1.738-28.499-7.114-48.186C110.672,19.567,128.538,25.76,142.47,35.832z"/>
					<g>
						<g>
							<path style="fill:#457228;" d="M147.305,192.94c0,0,0.027-0.712,0.079-2.046c0.026-0.667,0.057-1.49,0.094-2.458
								c0.013-0.934,0.027-2.008,0.044-3.211c0.031-1.196,0.004-2.556-0.008-4.028c-0.002-1.473-0.045-3.067-0.107-4.773
								c-0.095-3.411-0.319-7.264-0.636-11.468c-0.153-2.102-0.376-4.289-0.58-6.556c-0.261-2.262-0.472-4.607-0.797-7.008
								c-0.572-4.811-1.358-9.864-2.221-15.088c-0.926-5.211-1.927-10.597-3.148-16.027c-1.206-5.433-2.534-10.935-4.045-16.389
								c-1.476-5.465-3.126-10.883-4.876-16.176c-1.725-5.304-3.654-10.443-5.571-15.4c-1.997-4.922-3.979-9.667-6.084-14.064
								c-2.048-4.425-4.188-8.51-6.218-12.254c-1.029-1.863-2.07-3.618-3.032-5.306c-1.019-1.653-1.987-3.221-2.896-4.695
								c-1.897-2.896-3.573-5.413-5.059-7.41c-1.429-2.042-2.67-3.556-3.486-4.612c-0.823-1.052-1.262-1.613-1.262-1.613
								s0.466,0.538,1.339,1.548c0.868,1.015,2.185,2.47,3.715,4.442c1.588,1.928,3.391,4.366,5.439,7.181
								c0.986,1.435,2.035,2.962,3.141,4.572c1.049,1.646,2.183,3.361,3.311,5.185c2.227,3.664,4.586,7.674,6.869,12.031
								c2.34,4.329,4.574,9.013,6.836,13.884c2.18,4.905,4.387,10.004,6.393,15.277c2.033,5.263,3.972,10.662,5.739,16.119
								c1.801,5.447,3.421,10.954,4.916,16.404c1.51,5.447,2.796,10.862,3.998,16.116c1.139,5.268,2.192,10.376,3.019,15.256
								c0.452,2.434,0.787,4.82,1.167,7.12c0.323,2.309,0.661,4.538,0.925,6.687c0.537,4.298,0.964,8.252,1.236,11.773
								c0.149,1.76,0.276,3.408,0.353,4.939c0.088,1.53,0.184,2.927,0.216,4.224c0.045,1.289,0.085,2.439,0.12,3.441
								c0.01,0.968,0.02,1.792,0.026,2.459c0.015,1.336,0.023,2.048,0.023,2.048L147.305,192.94z"/>
						</g>
					</g>
				</g>
				<g>
					<path style="fill:#538830;" d="M245.119,173.705c-21.434,24.662-73.332,17.236-73.332,17.236s-10.557-45.253,11.678-70.826
						c30.173-34.707,68.405-39.96,112.703-19.898C261.804,124.069,266.557,149.042,245.119,173.705z"/>
					<path style="fill:#AFB4B6;" d="M233.335,170.673c-10.533,5.318-29.631,8.861-38.961-1.309
						c-2.696-2.937-5.464-6.048-3.943-10.296c3.712-10.365,7.337-20.564,10.425-31.155c2.927-10.024,5.798-21.105,12.107-29.595
						c0.688-0.926,1.405-1.817,2.13-2.706c-11.337,5.206-21.902,13.315-31.63,24.503c-22.234,25.573-11.678,70.826-11.678,70.826
						s51.898,7.425,73.332-17.236c5.796-6.666,9.669-13.355,12.929-20.038C250.269,159.981,242.367,166.11,233.335,170.673z"/>
					<path style="opacity:0.3;fill:#FFFFFF;" d="M240.88,88.854c9.286,6.78,31.086,9.309,38.22,10.874
						c1.376,0.302,2.176,1.783,1.559,3.082c-3.845,8.122-13.218,13.681-16.034,22.031c-1.675,4.973-1.131,9.209,0.64,12.967
						c5.871-12.697,13.186-25.294,30.902-37.59C276.48,91.302,257.996,87.403,240.88,88.854z"/>
					<g>
						<g>
							<path style="fill:#457228;" d="M148.83,216.786c0,0,0.371-0.607,1.065-1.746c0.348-0.569,0.776-1.272,1.28-2.098
								c0.539-0.836,1.157-1.798,1.85-2.874c0.685-1.089,1.479-2.235,2.333-3.499c0.846-1.27,1.794-2.616,2.817-4.045
								c2.027-2.875,4.407-6.042,7.058-9.448c1.321-1.706,2.747-3.442,4.2-5.255c1.499-1.775,3.002-3.648,4.63-5.503
								c3.196-3.759,6.704-7.599,10.367-11.532c3.71-3.889,7.575-7.874,11.648-11.773c4.062-3.909,8.26-7.804,12.584-11.554
								c4.299-3.777,8.717-7.417,13.146-10.892c4.412-3.498,8.905-6.744,13.279-9.837c4.425-3.024,8.732-5.9,12.949-8.418
								c4.182-2.572,8.252-4.807,12.033-6.813c1.898-0.988,3.747-1.88,5.488-2.757c1.771-0.817,3.45-1.591,5.028-2.319
								c3.195-1.369,5.987-2.541,8.335-3.384c2.321-0.911,4.194-1.487,5.458-1.915c1.266-0.421,1.941-0.646,1.941-0.646
								s-0.666,0.251-1.914,0.723c-1.246,0.477-3.09,1.126-5.37,2.128c-2.306,0.934-5.043,2.213-8.167,3.701
								c-1.541,0.787-3.181,1.624-4.91,2.506c-1.697,0.942-3.498,1.901-5.345,2.958c-3.678,2.144-7.628,4.522-11.676,7.24
								c-4.081,2.663-8.24,5.688-12.503,8.856c-4.212,3.24-8.531,6.628-12.76,10.266c-4.246,3.614-8.471,7.387-12.572,11.291
								c-4.125,3.876-8.119,7.89-11.974,11.907c-3.866,4.008-7.521,8.091-11.022,12.066c-3.453,4.018-6.752,7.931-9.743,11.748
								c-1.526,1.884-2.927,3.781-4.327,5.579c-1.353,1.834-2.682,3.589-3.907,5.309c-2.458,3.433-4.656,6.614-6.514,9.486
								c-0.939,1.429-1.808,2.772-2.577,4.034c-0.777,1.255-1.508,2.405-2.107,3.45c-0.615,1.042-1.163,1.973-1.641,2.782
								c-0.47,0.846-0.871,1.564-1.195,2.147c-0.648,1.166-0.995,1.788-0.995,1.788L148.83,216.786z"/>
						</g>
					</g>
				</g>
				<g>
					<path style="fill:#538830;" d="M76.856,182.263c15.084,24.893,61.764,26.228,61.764,26.228s16.114-38.125,0.468-63.94
						c-21.236-35.034-54.001-45.429-95.922-34.523C69.719,136.166,61.768,157.371,76.856,182.263z"/>
					<path style="fill:#AFB4B6;" d="M87.657,181.386c8.443,6.263,24.67,12.261,34.4,4.747c2.812-2.171,5.712-4.482,5.019-8.441
						c-1.69-9.661-3.327-19.162-4.436-28.928c-1.052-9.241-1.896-19.403-6.15-27.811c-0.463-0.918-0.958-1.807-1.459-2.698
						c9.163,6.286,17.211,15.005,24.057,26.297c15.645,25.815-0.468,63.94-0.468,63.94s-46.68-1.335-61.764-26.228
						c-4.078-6.728-6.467-13.187-8.316-19.547C74.411,169.437,80.421,176.012,87.657,181.386z"/>
					<path style="opacity:0.3;fill:#FFFFFF;" d="M93.418,108.419c-9.18,4.546-28.697,3.469-35.195,3.761
						c-1.253,0.059-2.183,1.237-1.838,2.47c2.148,7.712,9.535,14.01,10.741,21.767c0.719,4.617-0.399,8.255-2.522,11.285
						c-3.232-12.034-7.748-24.2-21.438-37.674C61.797,105.181,78.614,104.557,93.418,108.419z"/>
					<g>
						<g>
							<path style="fill:#457228;" d="M148.814,236.948c0,0-0.869-2.381-2.39-6.548c-0.362-1.063-0.843-2.146-1.345-3.353
								c-0.504-1.204-1.049-2.506-1.631-3.897c-0.556-1.398-1.244-2.868-1.978-4.417c-0.726-1.552-1.489-3.183-2.285-4.885
								c-0.798-1.702-1.741-3.423-2.656-5.234c-0.951-1.793-1.841-3.698-2.927-5.565c-2.118-3.764-4.293-7.772-6.801-11.771
								c-1.247-2.001-2.418-4.102-3.783-6.111c-1.332-2.033-2.68-4.091-4.038-6.165c-1.349-2.083-2.85-4.082-4.28-6.146
								c-1.449-2.051-2.881-4.128-4.439-6.109c-1.529-2.006-3.057-4.012-4.58-6.01c-1.569-1.961-3.182-3.874-4.756-5.795
								c-0.79-0.958-1.577-1.913-2.36-2.863c-0.82-0.917-1.636-1.83-2.446-2.738c-1.626-1.813-3.232-3.604-4.813-5.366
								c-1.656-1.689-3.286-3.35-4.88-4.977c-0.799-0.813-1.589-1.618-2.369-2.413c-0.789-0.786-1.619-1.507-2.41-2.25
								c-1.597-1.471-3.15-2.902-4.652-4.287c-0.738-0.709-1.512-1.349-2.278-1.968c-0.761-0.626-1.508-1.24-2.241-1.842
								c-1.465-1.205-2.869-2.359-4.204-3.457c-1.385-1.031-2.727-1.974-3.974-2.88c-1.251-0.902-2.422-1.746-3.505-2.526
								c-0.271-0.194-0.537-0.386-0.797-0.572c-0.272-0.168-0.539-0.331-0.8-0.491c-0.521-0.32-1.018-0.626-1.489-0.916
								c-3.778-2.323-5.937-3.65-5.937-3.65s2.211,1.241,6.081,3.413c0.484,0.271,0.995,0.559,1.53,0.858
								c0.268,0.15,0.542,0.305,0.821,0.461c0.268,0.177,0.542,0.357,0.82,0.542c1.117,0.738,2.324,1.537,3.615,2.391
								c1.288,0.859,2.673,1.753,4.107,2.734c1.385,1.049,2.841,2.151,4.36,3.303c0.76,0.576,1.536,1.164,2.327,1.763
								c0.796,0.593,1.601,1.206,2.37,1.889c1.567,1.332,3.187,2.709,4.852,4.125c0.827,0.715,1.693,1.411,2.518,2.17
								c0.817,0.768,1.645,1.546,2.481,2.332c1.673,1.575,3.381,3.184,5.119,4.82c1.663,1.712,3.354,3.452,5.065,5.214
								c0.855,0.883,1.714,1.772,2.579,2.665c0.828,0.926,1.66,1.856,2.495,2.791c1.665,1.875,3.371,3.742,5.034,5.66
								c1.618,1.955,3.242,3.919,4.866,5.882c1.655,1.941,3.186,3.979,4.732,5.994c1.528,2.027,3.128,3.993,4.576,6.044
								c1.458,2.044,2.906,4.072,4.336,6.076c1.465,1.982,2.735,4.059,4.08,6.039c2.703,3.954,5.075,7.933,7.381,11.675
								c1.179,1.855,2.164,3.757,3.205,5.546c1.006,1.809,2.036,3.524,2.922,5.232c0.884,1.708,1.732,3.345,2.537,4.902
								c0.813,1.552,1.577,3.031,2.224,4.48c0.667,1.434,1.292,2.775,1.87,4.016c0.573,1.241,1.13,2.385,1.524,3.408
								c1.686,4.104,2.649,6.448,2.649,6.448L148.814,236.948z"/>
						</g>
					</g>
				</g>
				
					<line style="fill:none;stroke:#457228;stroke-width:8.9734;stroke-miterlimit:10;" x1="151.967" y1="303.22" x2="151.967" y2="190.026"/>
			</g>
			<g>
				<path style="fill:#432918;" d="M242.338,309.564c-0.976-7.659-4.155-15.734-9.543-21.396c-2.496-2.622-6.38-4.534-9.979-4.912
					c-8.187-0.861-11.21-3.53-17.033-9.088c-2.988-2.852-4.552-4.035-9.057-4.035c-10.511,0-9.958-1.476-16.348-5.523
					c-3.806-2.409-5.989-3.261-10.462-3.201c-4.938,0.065-6.762-2.908-10.919-4.079c-4.649-1.311-6.915-0.716-11.573,1.188
					c-5.95,2.432-10.458,0.51-15.745,1.963c-7.517,2.068-12.393,6.07-20.839,6.761c-5.084,0.415-10.693,3.054-15.462,4.742
					c-8.826,3.124-10.736,9.99-18.854,14.364c-4.057,2.185-6.079,4.88-6.774,8.203c-1.875,4.019-1.748,9.106,1.606,14.6
					c1.673,2.737,5.26,3.411,8.103,4.192c4.707,1.291,5.427,5.829,9.737,8.353c8.035,4.708,23.781-0.471,32.928,1.23
					c6.497,1.209,12.404,3.255,19.065,3.424c7.819,0.199,13.258-1.542,20.951,1.677c3.704,1.55,9.646,3.742,13.761,2.283
					c5.46-1.935,9.943-6.728,16.06-6.833c6.482-0.109,11.89-1.626,17.987-3.965c7.38-2.832,12.351,0.431,19.401,0.439
					C234.881,319.959,243.276,316.919,242.338,309.564z"/>
				<path style="fill:#3A2313;" d="M242.058,307.833c-0.498,0.628-0.994,1.257-1.55,1.853c-4.61,4.943-8.957-0.124-13.985,0.555
					c-12.35,1.669-23.372,4.326-35.329,7.756c-10.355,2.972-19.959,5.735-30.776,4.526c-12.606-1.409-25.163,0.543-37.66-1.842
					c-11.553-2.204-24.318-4.432-35.151-9.162c-9.299-4.059-14.708-10.109-17.637-17.789c-0.077,0.271-0.16,0.54-0.218,0.819
					c-1.875,4.019-1.748,9.106,1.606,14.6c1.673,2.737,5.26,3.411,8.103,4.192c4.707,1.291,5.427,5.829,9.737,8.353
					c8.035,4.708,23.781-0.471,32.928,1.23c6.497,1.209,12.404,3.255,19.065,3.424c7.819,0.199,13.258-1.542,20.951,1.677
					c3.704,1.55,9.646,3.742,13.761,2.283c5.46-1.935,9.943-6.728,16.06-6.833c6.482-0.109,11.89-1.626,17.987-3.965
					c7.38-2.832,12.351,0.431,19.401,0.439c5.531,0.009,13.926-3.031,12.988-10.386C242.265,308.99,242.154,308.411,242.058,307.833
					z"/>
				<path style="fill:#3A2313;" d="M129.125,305.71c-2.256-0.888-4.291-1.105-6.676-1.31c-5.044-0.431-6.371-3.226-9.786-6.025
					c-1.501-1.23-3.594-2.249-5.592-1.478c-0.454,0.168-0.903,0.347-1.348,0.541c-1.267,0.529-2.52,1.383-3.23,2.556
					c-0.068-0.071-0.145-0.135-0.212-0.208c-1.152-1.224-3.452-0.978-4.237,0.547c-2.49-0.424-4.982-0.848-7.474-1.271
					c-0.561-0.833-1.749-0.12-1.332,0.776c0.851,1.827,1.979,4.293,4.223,4.817c4.129,0.965,5.221-1.16,7.812,3.185
					c1.172,1.967,3.526,1.982,5.164,0.665c0.095-0.076,0.124-0.154,0.141-0.229c0.207,0.139,0.438,0.289,0.774,0.487
					c1.609,0.942,4.214,1.185,6.001,0.695c5.311-1.461,9.985-1.042,15.435-1.268C130.28,308.127,130.42,306.22,129.125,305.71z"/>
				<path style="fill:#3A2313;" d="M178.777,309.115c-1.868-0.341-3.52-0.201-4.903-1.659c-0.537-0.564-1.601-0.936-2.357-0.624
					c-3.105,1.287-3.195-0.464-6.153-0.102c-2.23,0.272-4.713,2.451-6.384,1.429c-0.999-0.611-2.167-0.168-2.787,0.73
					c-3.812,5.534-8.869,7.671-14.225,2.784c-0.998-0.912-2.369-2.606-3.797-2.945c-4.078-0.966-5.566,2.783-7.058,6.035
					c-0.406,0.887,0.845,1.664,1.333,0.777c5.029-9.14,6.925-1.622,10.167,0.186c2.137,1.191,4.546,1.634,6.933,2.124
					c4.002,0.826,8.278-5.523,9.569-4.588c0.6,0.435,1.554,0.362,2.161,0c4.016-2.384,11.631-0.335,16.232,0.449
					C180.506,314.222,181.808,309.668,178.777,309.115z"/>
				<path style="fill:#3A2313;" d="M228.525,301.426c-4.908-1.468-11.588-1.314-16.732-1.56c-2.85-0.136-5.511,2.936-7.211,5.459
					c-2.805-1.673-4.653-0.822-8.206,0.813c-0.99,0.458-0.252,1.856,0.703,1.667c2.602-0.517,3.976-1.451,6.805,1.046
					c0.822,0.725,2.016,0.608,2.617-0.337c3.483-5.483,9.356-4.76,15.062-3.813c2.913,0.485,5.983,1.114,7.589-1.732
					C229.491,302.37,229.18,301.621,228.525,301.426z"/>
				<path style="fill:#3A2313;" d="M122.544,285.727c-4.235-0.884-7.714,0.671-10.343,3.665c-4.834-4.365-12.435-3.729-18.163-1.017
					c-0.731,0.344-0.211,1.498,0.54,1.281c4.947-1.432,13.043-1.702,16.289,3.174c0.756,1.136,2.172,1.048,2.942,0
					c2.31-3.139,4.634-3.68,8.251-3.523C124.104,289.396,124.562,286.147,122.544,285.727z"/>
				<path style="fill:#3A2313;" d="M138.222,279.967c-3.938-1.828-6.293-4.53-6.872-8.934c-0.115-0.883-0.741-1.942-1.814-1.814
					c-7.364,0.876-13.755-3.636-21.236-2.26c-1.246,0.229-0.958,2.284,0.298,2.204c6.988-0.449,12.692,4.007,19.636,3.732
					c1.574,4.481,4.501,7.251,9.285,8.738C138.493,281.935,139.167,280.406,138.222,279.967z"/>
				<path style="fill:#3A2313;" d="M185.495,271.758c-1.952,0.293-4.253,0.56-4.972,2.724c-2.061,6.22-9.949,6.443-14.77,9.286
					c-0.378,0.222-0.47,0.76-0.288,1.141c-2.859-0.795-5.895-0.862-9.146-0.358c-3.637,0.567-7.198,1.508-10.868,1.86
					c-3.472,0.331-6.53-1.084-9.933-1.334c-0.588-0.043-1.042,0.615-0.88,1.154c1.477,4.899,6.907,5.694,11.424,4.708
					c8.546-1.867,16.605-7.131,25.207-2.465c0.269,0.146,0.599-0.237,0.34-0.441c-1.519-1.193-3.096-2.051-4.73-2.665
					c5.955,0.511,11.433-2.469,15.48-6.737c2.76-2.911,0.52-3.058,6.25-3.535c8.601-0.715,15.409-1.523,22.385,4.96
					c0.058,0.053,0.155-0.016,0.111-0.084C205.242,270.986,195.546,270.259,185.495,271.758z"/>
				<path style="fill:#3A2313;" d="M220.018,287.203c-8.18-0.771-16.756,0.088-24.687-2.256c-6.036-1.783-11.102-2.849-15.286,2.647
					c-0.659,0.865,0.436,2.235,1.425,1.854c3.559-1.368,7.125-2.65,10.994-1.73c2.671,0.635,5.26,1.203,7.999,1.444
					c6.498,0.574,13.133-0.652,19.556-1.398C220.377,287.724,220.381,287.239,220.018,287.203z"/>
				<path style="fill:#3A2313;" d="M171.52,264.122c-5.872-3.529-13.548-8.138-20.639-7.638c-5.354,0.38-15.271,4.538-18.393,8.854
					c-0.368,0.51,0.04,1.158,0.545,1.339c5.353,1.903,11.665-3.92,16.483-5.75c7.456-2.833,14.435,4.503,21.896,3.585
					C171.609,264.488,171.713,264.238,171.52,264.122z"/>
				<path style="fill:#3A2313;" d="M171.45,267.158c-4.359-1.171-8.62-0.683-13.121-0.465c-3.084,0.151-7.694-0.539-9.63,2.242
					c-0.217,0.31-0.238,0.898,0,1.203c2.133,2.764,5.653,1.374,8.726,0.917c4.706-0.699,9.514-2.209,14.026-3.626
					C171.579,267.389,171.587,267.195,171.45,267.158z"/>
				<path style="fill:#5E3B27;" d="M135.944,284.515c-4.41-3.051-7.4-7.602-11.676-10.754c-2.221-1.637-8.634-4.678-11.093-2.525
					c-0.076,0.066-0.096,0.204-0.037,0.288c0.482,0.698,1.412,0.666,2.155,1.067c0.081,0.042,0.141-0.069,0.07-0.124
					c-0.265-0.195-2.477-1.304-0.299-0.953c1.452,0.236,2.864,0.737,4.207,1.315c2.212,0.954,4.112,2.669,5.8,4.351
					c3.286,3.273,5.874,6.521,10.022,8.787C136.058,286.493,136.828,285.125,135.944,284.515z"/>
				<path style="fill:#5E3B27;" d="M167.112,264.374c-1.774-0.38-3.54,0.428-5.347,0.549c-2.509,0.165-5.066-0.21-7.552-0.503
					c-0.71-0.083-0.855,1.09-0.168,1.239c3.299,0.708,10.798,3.056,13.377-0.114C167.73,265.168,167.675,264.495,167.112,264.374z"
					/>
				<path style="fill:#5E3B27;" d="M183.774,271.383c-2.097-2.148-6.255,1.098-7.992,2.448c-3.657,2.849-6.026,6.479-10.387,8.357
					c-0.059,0.026-0.038,0.113,0.017,0.128c2.711,0.725,5.783-2.361,7.688-3.893c1.917-1.543,3.762-3.189,5.866-4.473
					c1.556-0.951,3.471-0.656,4.808-1.773C184.011,271.979,183.973,271.587,183.774,271.383z"/>
				<path style="fill:#5E3B27;" d="M215.662,284.767c-4.725-0.778-9.864,0.124-14.7-0.211c-5.379-0.37-10.902-0.762-16.052-2.442
					c-0.151-0.049-0.251,0.186-0.107,0.256c4.446,2.194,9.357,3.571,14.278,4.101c5.123,0.553,11.893,1.392,16.699-0.808
					C216.153,285.494,216.07,284.835,215.662,284.767z"/>
				<path style="fill:#5E3B27;" d="M230.058,300.399c-3.721-2.83-11.662-2.297-16.007-1.799c-3.777,0.433-6.962,2.005-8.532,5.304
					c-2.349-2.264-3.416-1.065-6.509,0.657c-0.146,0.081-0.044,0.289,0.108,0.258c2.185-0.45,3.936-1.888,5.966,1.035
					c0.317,0.456,1.182,0.633,1.452,0c4.119-9.659,16.296-2.638,23.372-4.302C230.495,301.414,230.458,300.704,230.058,300.399z"/>
				<path style="fill:#5E3B27;" d="M170.863,308.971c-6.231-4.82-11.846-0.157-18.503,1.145c-5.065,0.994-7.446,1.812-12.057-2.443
					c-2.301-2.121-4.198-3.128-7.23-2.237c-0.623,0.183-0.787,1.082-0.185,1.409c4.648,2.522,9.361,7.158,14.97,7.364
					c8.295,0.305,13.93-7.639,22.733-4.768C170.844,309.523,171.088,309.146,170.863,308.971z"/>
				<path style="fill:#5E3B27;" d="M129.147,301.774c-5.443,3.254-12.967,0.704-17.406-3.301c-3.429-3.093-8.819-1.86-12.864-1.478
					c-0.266,0.025-0.275,0.421,0,0.421c4.879,0.001,9.747-0.403,13.104,3.838c1.32,1.669,3.107,1.896,5.066,2.629
					c4.774,1.788,9.771,3.926,13.155-1.055C130.646,302.174,129.787,301.392,129.147,301.774z"/>
				<path style="fill:#5E3B27;" d="M122.806,285.147c-2.076-0.116-4.186,0.016-6.244,0.325c-2.246,0.339-2.992,1.922-5.131,0.421
					c-3.862-2.709-8.277-2.769-12.593-1.546c-0.185,0.053-0.109,0.338,0.079,0.29c4.836-1.252,10.114,0.862,13.572,4.189
					c0.265,0.253,0.701,0.34,1.021,0.132c3.206-2.08,6.232-1.014,9.519-2.161C123.93,286.485,123.77,285.201,122.806,285.147z"/>
				<path style="fill:#5E3B27;" d="M157.558,262.95c-5.728-3.921-14.675,2.625-20.563,3.528c-0.083,0.012-0.053,0.132,0.019,0.138
					c3.026,0.22,5.744-0.163,8.635-1.031c1.507-0.452,3.005-0.881,4.542-1.218c2.403-0.528,4.634,0.16,7.014-0.111
					C157.895,264.177,158.163,263.364,157.558,262.95z"/>
			</g>
		</g>
		<g>
			<path style="fill:#53ABAA;" d="M59.636,290.345c-0.029,0.965-0.048,1.932-0.048,2.903c0,52.255,42.361,94.617,94.616,94.617
				c52.257,0,94.618-42.362,94.618-94.617c0-0.972-0.019-1.938-0.048-2.903H59.636z"/>
			<g>
				<g>
					<path style="fill:#6A862B;" d="M229.357,338.301c-0.366-0.513-1.263,0.386-1.343-0.65c-0.051-0.665,0.161-1.515,0.682-2.397
						c0.942-1.597,1.858-2.875,2.419-4.564c0.66-1.982,1.28-3.175,3.32-4.63c1.547-1.105,2.708-2.079,4.002-3.553
						c0.572-0.654,1.276-1.869,1.986-2.066c0.09,0.73-0.154,2.018-0.266,2.767c-0.077,0.517-0.922,3.16-1.333,2.038
						c-0.489,1.354-0.584,2.527-1.411,3.931c-0.684,1.155-1.589,2.378-2.474,3.511c-0.772,0.99-4.691,6.831-5.617,5.709
						C229.335,338.357,229.342,338.338,229.357,338.301z"/>
					<path style="fill:#6A862B;" d="M239.003,291.431c1.107-0.008,2.323-0.591,3.461-1.086h-5.139
						C237.51,290.986,237.952,291.439,239.003,291.431z"/>
					<path style="fill:#6A862B;" d="M244.603,292.346c-0.725-0.306-1.766,0.087-2.368,0.388c-1.477,0.736-3.101,1.768-4.864,1.676
						c-1.932-0.101-2.848-1.714-3.25-3.467c-0.291-0.164-0.492-0.37-0.659-0.598h-74.58c0.008,0.111,0.013,0.217,0.029,0.343
						c0.346,2.642,3.317,3.958,5.033,5.69c1.81,1.828,4.296,2.547,5.171,5.038c0.686,1.949,0.332,2.68,2.542,2.526
						c1.255-0.089,2.508-0.567,3.754-0.59c1.143-0.02,2.052,0.39,3.186,0.37c1.603-0.026,3.161-0.517,4.63-1.169
						c2.141-0.947,4.534-2.185,6.276-0.208c0.954,1.082,1.355,1.879,2.787,2.142c1.252,0.231,1.738,0.098,2.429,1.235
						c1.34,2.206-0.642,4.416-0.174,6.723c0.384,1.9,2.496,3.433,3.382,4.983c0.583,1.021,0.149,1.937,0.267,3.089
						c0.114,1.125,0.793,2.007,1.03,3.037c0.526,2.28-1.301,4.135-1.886,6.295c-0.354,1.305-0.927,2.739-1.071,4.026
						c-0.116,1.065,0.174,2.037,0.243,3.054c0.073,1.053,0.074,2.16,0.521,3.033c0.4,0.779,1.262,1.254,1.349,2.209
						c0.164,1.791-0.7,3.934-0.376,5.586c0.161,0.818,0.745,1.065,1.097,1.646c0.339,0.56,0.405,1.356,0.597,1.998
						c0.387,1.3-0.915,3.674,0.57,3.87c0.099,0.418,0.148,0.625,0.242,1.038c0.896-0.232,1.559-0.656,2.387-1.203
						c1.081-0.714,1.368-0.54,2.435-0.899c1.697-0.57,3.475-2.286,5.004-3.582c1.763-1.492,3.213-2.74,4.671-4.531
						c0.6-0.736,1.168-1.759,1.382-2.49c0.218-0.741-0.086-1.36,0.615-2.177c0-0.062,0.024-0.127,0.069-0.196
						c1.414-1.002,3.797-1.992,4.113-3.99c0.136-0.858-0.598-1.087-0.248-2.09c0.303-0.867,1.292-1.896,1.973-2.664
						c0.897-1.011,1.754-2.089,2.81-2.914c0.939-0.734,1.851-1.095,2.6-2.028c1.531-1.909,1.327-3.59,1.988-5.507
						c0.474-1.373,0.259-1.243-0.181-2.337c-0.259-0.648-0.377-1.447,0.017-2.219c0.227-0.448,0.626-0.393,0.732-1.029
						c0.074-0.445-0.384-0.518-0.402-0.897c-0.041-0.899,0.62-1.63,1.029-2.452c0.456-0.915,0.653-1.603,1.349-2.434
						c0.713-0.851,1.549-1.538,2.358-2.274c1.704-1.556,3.028-3.33,4.775-4.686c2.821-2.19,4.122-6.281,4.747-9.337
						C244.904,293.531,245.478,292.714,244.603,292.346z"/>
					<path style="fill:#6A862B;" d="M133.663,319.319c-1.54-1.69-2.73-2.67-4.979-3.298c-2.221-0.62-4.117-0.811-5.929-2.43
						c-1.833-1.636-3.861-0.771-5.72-1.936c-0.664-0.415-1.924-1.392-2.262-2.119c-0.401-0.863-0.496-1.724-1.016-2.612
						c-0.997-1.704-1.599-3.8-3.535-4.601c-1.671-0.691-4.349,0.003-5.291-1.564c-0.542-0.905-0.619-1.477-1.446-2.227
						c-0.643-0.584-1.467-0.952-2.045-1.523c-0.696-0.689-0.907-1.528-1.746-2.024c-0.832-0.491-1.789-0.424-2.67-0.293
						c-0.878,0.128-1.991,0.498-2.929,0.237c-0.745-0.205-1.597-0.93-2.287-1.287c-1.01-0.52-1.606-0.886-2.425-0.002
						c-0.574,0.621-0.277,2.167-1.249,1.953c0.053-0.66,0.243-1.515-0.482-1.826c-0.163-1.082,0.885-1.128,0.789-2.032
						c-1.347,0.761-2.936,1.046-4.332,1.653c-0.856,0.371-1.354,0.827-1.628,1.689c-0.198,0.625-0.139,1.043-0.525,1.556
						c-0.272,0.361-0.689,0.497-0.928,0.887c-0.285-0.333-0.426-0.499-0.708-0.83c-0.645-1.984-2.895-0.072-4.111-0.504
						c-1.39-0.494-2.201-2.21-2.129-3.565c0.033-0.597,0.173-1.452,0.222-2.276h-7.697c0.269,0.182,0.552,0.35,0.877,0.469
						c1.653,0.604,2.653,0.943,3.66,2.622c0.476,0.793,0.374,1.555,0.911,2.325c0.493,0.706,1.434,1.276,2.154,1.745
						c0.666,0.433,1.546,1.04,2.309,1.273c1.067,0.328,1.108-0.188,1.922-0.598c2.197-1.106,2.335,2.225,2.407,3.623
						c0.059,1.147-0.097,1.611-0.539,2.494c-0.355,0.799-0.531,1.196-0.873,1.982c0.192,0.127,0.345,0.107,0.247,0.451
						c-1.513,0.347-1.154,1.026-1.532,2.348c-0.368,1.288,0.092,1.872,0.239,3.196c0.118,1.072-0.721,0.959-0.842,1.763
						c-0.1,0.641,0.906,1.775,1.303,2.396c0.489,0.762,1.051,1.934,1.741,2.66c0.952,1,1.684,1.413,2.445,2.609
						c1.068,1.68,1.706,3.944,3.153,5.452c1.277,1.33,3.116,2.249,4.525,3.335c1.796,1.386,4.021,4.292,4.559,6.17
						c0.792,2.764,1.175,5.265,1.732,7.877c0.633,2.977,2.236,5.816,2.982,8.654c0.657,2.498,1.672,4.698,3.035,7.217
						c1.118,2.065,2.951,3.418,4.232,5.61c1.302,2.227,2.622,4.493,4.14,6.709c1.186,1.732,2.729,4.424,4.453,5.091
						c1.089,0.421,0.822,0.184,1.809,1.526c0.795,1.084,1.361,1.172,2.112,1.92c-0.073-0.028-0.11-0.041-0.18-0.069
						c0.55,0.215,2.028,1.085,2.353,0.885c0.595-0.367-0.745-1.301-1.36-1.792c-1.533-1.227-2.827-2.612-3.974-4.242
						c-1.335-1.894,0.785-2.015-0.318-3.668c-0.609-0.915-3.964-2.028-3.346-3.206c0.163-0.311,0.865-0.09,1.042-0.461
						c-0.188-0.282-0.283-0.42-0.471-0.703c0.162-1.154-0.403-1.306-1.245-2.551c-0.233-0.347-0.677-1.179-0.621-1.489
						c0.104-0.556,0.664-0.077,1.098-0.159c0.747-0.143,0.568-1.027,1.191-1.373c0.657-0.365,2.233,0.254,2.568-0.558
						c0.636-1.541-4.407-4.755-1.398-4.264c0.972,0.159,1.936,0.585,2.881,0.806c1.249,0.292,1.229-0.15,1.511-1.115
						c0.244-0.845,0.475-1.593,0.571-2.537c0.069-0.656,0.045-0.87,0.431-1.379c0.231-0.305,0.667-0.356,0.91-0.673
						c0.388-0.504,0.837-1.734,0.829-2.477c-0.012-0.909-0.747-1.911-0.594-2.848c0.238-1.481,2.124-2.943,3.681-2.998
						c0.97-0.034,2.133,0.481,2.867-0.2c0.609-0.564,0.67-1.643,1.305-2.283c0.779-0.785,1.419-1.007,1.53-2.246
						c0.094-1.04-0.23-2.187-0.335-3.241c-0.242-2.4,0.129-3.879,0.93-5.974c0.396-1.036,0.376-2.017,1.047-2.984
						c0.565-0.816,1.515-1.405,2.053-2.263c0.574-0.916,0.338-2.11,0.305-3.235C134.983,320.469,134.643,320.392,133.663,319.319z"
						/>
				</g>
			</g>
		</g>
	</g>
</g>
</svg>
